<?xml version="1.0" encoding="UTF-8" standalone="no"?><!DOCTYPE svg PUBLIC "-//W3C//DTD SVG 1.1//EN" "http://www.w3.org/Graphics/SVG/1.1/DTD/svg11.dtd"><svg width="100%" height="100%" viewBox="0 0 760 670" version="1.1" xmlns="http://www.w3.org/2000/svg" xmlns:xlink="http://www.w3.org/1999/xlink" xml:space="preserve" xmlns:serif="http://www.serif.com/" style="fill-rule:evenodd;clip-rule:evenodd;stroke-linejoin:round;stroke-miterlimit:2;"><path d="M758.25,540.355l-756.688,0c-0.857,0 -1.562,-0.705 -1.562,-1.562c-0,-0.857 0.705,-1.563 1.562,-1.563l756.688,0c0.857,0 1.563,0.706 1.563,1.563c-0,0.857 -0.706,1.562 -1.563,1.562Z" style="fill:#d1d3d4;fill-rule:nonzero;"/><path d="M553.594,212.449l-74.782,0c-1.714,0 -3.125,-1.41 -3.125,-3.125c0,-1.714 1.411,-3.125 3.125,-3.125l74.782,0c4.131,0.01 8.009,-2.029 10.343,-5.437c4.563,-6.25 5.032,-16.907 1.219,-28.125c-7.375,-22.125 -31.437,-84.594 -31.687,-85.219c-0.138,-0.359 -0.209,-0.74 -0.209,-1.125c-0,-1.718 1.413,-3.131 3.131,-3.131c1.292,0 2.457,0.8 2.921,2.006c0.219,0.625 24.375,63.25 31.782,85.5c4.5,13.469 3.75,25.844 -2.063,33.906c-3.548,4.984 -9.32,7.928 -15.437,7.875Z" style="fill:#d1d3d4;fill-rule:nonzero;"/><path d="M372.75,230.23l13.188,166.282l-48.5,-3.625l-25.469,-153.875l60.781,-8.782Z" style="fill:#fff;fill-rule:nonzero;stroke:#000;stroke-width:3.13px;"/><path d="M317.406,149.23c0.933,-3.504 3.17,-6.523 6.25,-8.437c12.273,-7.586 25.477,-13.553 39.281,-17.75c5.196,-2.033 10.68,-3.236 16.25,-3.563c7.657,0 9.532,2.532 10.313,9.594c-0.656,-5.937 14.625,2.625 16.656,3.625c8.249,3.54 15.327,9.349 20.407,16.75c5.525,9.033 9.21,19.07 10.843,29.531c2.024,8.277 1.916,16.933 -0.312,25.157c-1.847,5.675 -5.765,10.452 -10.969,13.375c-5,2.562 -9.781,0.937 -15.125,0.781c-10.219,-0.25 -23.344,-2.406 -27.906,-13.063c-2.406,-5.718 -2.594,-10.968 -8.25,-14.718c-4.767,-2.658 -10.17,-3.966 -15.625,-3.782c-5.388,0.144 -10.771,-0.445 -16,-1.75c-10.469,-3.312 -17.031,-14.187 -22.781,-22.843c-2.777,-3.684 -3.878,-8.372 -3.032,-12.907Z" style="fill:#fff;fill-rule:nonzero;"/><path d="M419.656,220.512c-1.546,-0.024 -3.09,-0.129 -4.625,-0.313c-1.344,-0.156 -2.687,-0.281 -4.094,-0.344c-15.625,-0.375 -25.5,-5.093 -29.312,-14.031c-0.625,-1.531 -1.125,-3.125 -1.594,-4.469c-0.762,-3.836 -2.937,-7.251 -6.093,-9.562c-4.566,-2.481 -9.715,-3.69 -14.907,-3.5l-1.562,-0c-5.018,0.082 -10.024,-0.528 -14.875,-1.813c-10.313,-3.125 -16.75,-13.031 -22.469,-21.687l-1.156,-1.781c-2.977,-4.059 -4.112,-9.189 -3.125,-14.125c1.046,-3.923 3.58,-7.288 7.062,-9.375c12.391,-7.641 25.707,-13.669 39.625,-17.938c5.34,-2.07 10.97,-3.293 16.688,-3.625c7.5,0 10.187,2.594 11.312,7.625c2.688,-0.562 7.407,1.094 15.625,5.281l0.875,0.469c8.493,3.672 15.783,9.662 21.032,17.281c5.678,9.195 9.44,19.442 11.062,30.125c2.091,8.536 1.962,17.467 -0.375,25.938c-1.954,6.074 -6.16,11.175 -11.75,14.25c-2.274,1.143 -4.801,1.691 -7.344,1.594Zm-100.906,-70.938c-0.725,4.116 0.295,8.353 2.813,11.688l1.187,1.781c5.406,8.219 11.531,17.531 20.781,20.437c4.568,1.196 9.28,1.754 14,1.657l1.594,-0c5.777,-0.211 11.5,1.184 16.531,4.031c3.755,2.683 6.375,6.675 7.344,11.187c0.437,1.375 0.906,2.782 1.5,4.219c3.281,7.688 12.219,11.781 26.5,12.125c1.5,0 2.937,0.188 4.344,0.344c3.362,0.727 6.87,0.388 10.031,-0.969c4.852,-2.728 8.494,-7.197 10.187,-12.5c2.159,-7.97 2.245,-16.362 0.25,-24.375c-1.537,-10.268 -5.13,-20.121 -10.562,-28.969c-4.933,-7.173 -11.806,-12.799 -19.813,-16.218l-0.937,-0.469c-10.719,-5.594 -13.063,-5.188 -13.5,-4.969l-0,0.438c0.091,0.847 -0.528,1.621 -1.375,1.718c-0.848,0.091 -1.621,-0.528 -1.719,-1.375c-0.687,-6.25 -1.906,-8.187 -8.75,-8.218c-5.357,0.335 -10.629,1.505 -15.625,3.468c-13.645,4.197 -26.706,10.098 -38.875,17.563c-2.801,1.675 -4.859,4.36 -5.75,7.5l-0.156,-0.094Z" style="fill:#231f20;fill-rule:nonzero;"/><path d="M367.969,207.293c-0,-0 -17.625,15.625 -22.031,13.531c-4.407,-2.094 -2.969,-11.312 -2.969,-11.312" style="fill:#fff;fill-rule:nonzero;"/><path d="M346.813,222.543c-0.528,0.018 -1.053,-0.089 -1.532,-0.313c-5.312,-2.531 -4.031,-11.906 -3.875,-12.968c0.143,-0.837 0.943,-1.412 1.781,-1.282c0.758,0.101 1.331,0.754 1.331,1.518c-0,0.078 -0.006,0.156 -0.018,0.232c-0.313,2.094 -0.625,8.375 2.125,9.657c1.844,0.875 11.344,-5.313 20.312,-13.282c0.615,-0.595 1.605,-0.595 2.219,0c0.249,0.281 0.387,0.643 0.387,1.018c0,0.451 -0.199,0.879 -0.543,1.17c-5,4.625 -16.531,14.25 -22.188,14.25Z" style="fill:#231f20;fill-rule:nonzero;"/><path d="M409.344,203.105c-5.532,9.125 -33.875,9.188 -43.063,10.407c-12.937,1.75 -28.125,0.531 -41.062,1.687c-8.219,0.719 -11.406,-20.437 -9.375,-24.531l-36.094,-1.875l5.469,-18.219c3.193,-10.775 7.707,-21.113 13.437,-30.781l33.5,7.969c0,-0 1.875,14 19.719,19.906c17.844,5.906 43.469,1.937 43.469,1.937c-0,0 19.375,24.594 14,33.5Z" style="fill:#fff;fill-rule:nonzero;"/><path d="M324.844,216.762c-2.603,-0.123 -4.967,-1.577 -6.25,-3.844c-3.656,-6.285 -5.333,-13.529 -4.813,-20.781l-34.375,-1.782c-0.472,-0.035 -0.906,-0.275 -1.187,-0.656c-0.284,-0.387 -0.365,-0.887 -0.219,-1.344l5.5,-18.25c3.209,-10.948 7.787,-21.447 13.625,-31.25c0.338,-0.568 1.015,-0.849 1.656,-0.687l33.594,7.937c0.628,0.15 1.102,0.673 1.188,1.313c-0,0.531 2.062,13.156 18.75,18.75c17.281,5.719 42.468,1.906 42.718,1.875c0.555,-0.097 1.121,0.119 1.469,0.562c2.063,2.625 19.906,25.75 14.125,35.313c-4.844,8 -24.156,9.375 -36.937,10.5c-2.969,0.219 -5.469,0.406 -7.25,0.656c-7.659,0.827 -15.361,1.192 -23.063,1.094c-6.25,-0 -12.5,-0 -18.062,0.594l-0.469,-0Zm-43.156,-29.438l34.093,1.781c0.831,0.014 1.507,0.701 1.507,1.532c0,0.238 -0.056,0.474 -0.163,0.687c-1.031,2.219 0,14.094 3.969,19.781c1.281,1.813 2.625,2.688 4,2.532c5.844,-0.5 12.187,-0.563 18.312,-0.594c7.567,0.096 15.132,-0.259 22.657,-1.063c1.875,-0.25 4.437,-0.468 7.437,-0.687c11.406,-0.875 30.5,-2.344 34.375,-9c3.813,-6.25 -7.844,-23.906 -13.344,-31.031c-4.812,0.656 -26.969,3.125 -43.25,-2.125c-16.281,-5.25 -19.75,-16.563 -20.594,-20.125l-31.375,-7.5c-5.35,9.294 -9.618,19.171 -12.718,29.437l-4.906,16.375Z" style="fill:#231f20;fill-rule:nonzero;"/><path d="M334.813,213.387c1.849,-6.791 2.743,-13.806 2.656,-20.844" style="fill:#fff;fill-rule:nonzero;"/><path d="M334.813,215.074c-0.166,0.03 -0.335,0.03 -0.5,0c-0.802,-0.279 -1.237,-1.163 -0.969,-1.969c1.79,-6.64 2.653,-13.497 2.562,-20.375c0.077,-0.831 0.76,-1.488 1.594,-1.531c0.856,0.05 1.533,0.768 1.531,1.625c0.089,7.198 -0.837,14.373 -2.75,21.313c-0.253,0.58 -0.835,0.952 -1.469,0.937Z" style="fill:#231f20;fill-rule:nonzero;"/><path d="M356.188,183.699c3.177,-0.825 6.065,-2.512 8.343,-4.875c1.994,-1.564 3.742,-3.418 5.188,-5.5c1.45,-2.132 1.875,-4.804 1.156,-7.281c-0.882,-2.098 -2.607,-3.732 -4.75,-4.5c-2.131,-0.713 -4.393,-0.948 -6.625,-0.688c-9.938,0.965 -18.631,7.187 -22.75,16.282l0.656,-0.844" style="fill:#fff;fill-rule:nonzero;"/><path d="M356.188,185.262c-0.76,-0.006 -1.41,-0.563 -1.532,-1.313c-0.016,-0.089 -0.023,-0.18 -0.023,-0.271c-0,-0.76 0.555,-1.416 1.305,-1.541c2.879,-0.794 5.491,-2.348 7.562,-4.5c1.883,-1.465 3.537,-3.203 4.906,-5.157c1.181,-1.726 1.546,-3.887 1,-5.906c-0.72,-1.665 -2.102,-2.956 -3.812,-3.562c-1.917,-0.655 -3.96,-0.858 -5.969,-0.594c-8.72,0.88 -16.463,6.022 -20.656,13.719c0.041,0.415 -0.082,0.831 -0.344,1.156l-0.656,0.812c-0.294,0.401 -0.763,0.638 -1.26,0.638c-0.857,0 -1.562,-0.705 -1.562,-1.562c-0,-0.243 0.057,-0.483 0.165,-0.701c4.394,-9.584 13.572,-16.139 24.063,-17.187c2.467,-0.292 4.969,-0.014 7.312,0.812c2.582,0.892 4.65,2.868 5.657,5.407c0.895,2.919 0.424,6.092 -1.282,8.625c-1.544,2.21 -3.396,4.188 -5.5,5.875c-2.5,2.549 -5.659,4.356 -9.125,5.218l-0.25,0.032Z" style="fill:#231f20;fill-rule:nonzero;"/><path d="M315.719,190.668c-0,-0 1.844,-11.469 8.656,-17.656c0,-0 -19.937,-0.75 -23.25,16.906l14.594,0.75Z" style="fill:#231f20;fill-rule:nonzero;"/><path d="M315.719,192.23l-14.594,-0.75c-0.44,-0.036 -0.846,-0.251 -1.125,-0.593c-0.288,-0.36 -0.402,-0.83 -0.313,-1.282c3.5,-18.75 24.657,-18.218 24.844,-18.156c0.631,0.004 1.196,0.405 1.406,1c0.223,0.601 0.063,1.281 -0.406,1.719c-6.25,5.719 -8.156,16.625 -8.187,16.75c-0.126,0.785 -0.832,1.354 -1.625,1.312Zm-12.656,-3.843l11.375,0.593c1.091,-5.135 3.218,-9.994 6.25,-14.281c-5.313,0.75 -14.782,3.406 -17.625,13.688Z" style="fill:#231f20;fill-rule:nonzero;"/><path d="M372,190.793l1.5,10.812" style="fill:none;fill-rule:nonzero;"/><path d="M373.656,203.168c-0.774,0.006 -1.436,-0.576 -1.531,-1.344l-1.531,-10.844c-0.093,-0.844 0.504,-1.621 1.344,-1.75c0.075,-0.011 0.151,-0.017 0.228,-0.017c0.776,0 1.435,0.59 1.522,1.361l1.531,10.813c0.111,0.855 -0.491,1.653 -1.344,1.781l-0.219,-0Z" style="fill:#231f20;fill-rule:nonzero;"/><path d="M210.375,528.418l-18.375,55.531l35.062,24.563l26.282,-71.219l-42.969,-8.875Z" style="fill:#fff;fill-rule:nonzero;"/><path d="M227.031,610.074c-0.314,0.003 -0.621,-0.096 -0.875,-0.281l-35.062,-24.531c-0.566,-0.384 -0.809,-1.102 -0.594,-1.75l18.406,-55.563c0.252,-0.752 1.038,-1.199 1.813,-1.031l42.937,8.875c0.713,0.142 1.232,0.774 1.232,1.502c-0,0.192 -0.036,0.382 -0.107,0.56l-26.281,71.219c-0.159,0.464 -0.531,0.825 -1,0.969l-0.469,0.031Zm-33.187,-26.719l32.437,22.719l25,-67.625l-39.812,-8.219l-17.625,53.125Z" style="fill:#231f20;fill-rule:nonzero;"/><path d="M194.844,575.293c-0,-0 -18.344,37.25 -15.219,42.25c3.125,5 75.5,39.906 78.688,34.375c3.187,-5.531 -27.001,-59.938 -27.001,-59.938l-36.468,-16.687Z" style="fill:#231f20;fill-rule:nonzero;"/><path d="M256.594,654.012c-11.719,-0 -75,-30.344 -78.125,-35.719c-3.125,-5.375 10.75,-34.844 15.156,-43.75c0.375,-0.738 1.275,-1.057 2.031,-0.719l36.438,16.719c0.307,0.131 0.56,0.362 0.718,0.656c9.375,16.594 30.25,55.813 27.001,61.469c-0.653,0.957 -1.787,1.476 -2.938,1.344l-0.281,-0Zm-61.063,-76.688c-8.375,17.156 -16.187,36.719 -14.656,39.406c2.781,3.938 68.469,36.282 76.063,34.375c0.843,-4.312 -12.782,-32.437 -26.813,-57.781l-34.594,-16Z" style="fill:#231f20;fill-rule:nonzero;"/><path d="M355,547.574l4.969,58.281l41.906,8.75l-3.938,-75.812l-42.937,8.781Z" style="fill:#fff;fill-rule:nonzero;"/><path d="M401.781,616.168l-0.312,-0l-41.906,-8.75c-0.677,-0.124 -1.192,-0.689 -1.25,-1.375l-4.875,-58.281c-0.063,-0.785 0.477,-1.501 1.25,-1.657l42.937,-8.781c0.447,-0.083 0.91,0.019 1.281,0.281c0.356,0.281 0.573,0.704 0.594,1.157l3.938,75.812c0.003,0.042 0.005,0.084 0.005,0.126c-0,0.84 -0.692,1.531 -1.532,1.531c-0.012,-0 -0.024,-0 -0.036,-0.001l-0.094,-0.062Zm-40.437,-11.594l38.781,8.094l-3.75,-71.875l-39.813,8.125l4.782,55.656Z" style="fill:#231f20;fill-rule:nonzero;"/><path d="M359.188,596.762c-0,-0 -2.157,41.468 2.687,44.843c4.844,3.375 85.094,6.907 85.844,0.594c0.75,-6.312 -48.438,-44.437 -48.438,-44.437l-40.094,-1Z" style="fill:#231f20;fill-rule:nonzero;"/><path d="M417.406,647.199c-23.812,0 -53.125,-2.031 -56.562,-4.312c-5.156,-3.594 -3.844,-36.282 -3.313,-46.188c0.034,-0.816 0.715,-1.469 1.531,-1.469l40.063,0.969c0.331,0.014 0.649,0.134 0.906,0.344c15.031,11.625 49.813,39.375 49.063,45.844c-0.221,1.146 -1.067,2.077 -2.188,2.406c-3.625,1.719 -15.562,2.406 -29.5,2.406Zm-56.844,-48.844c-0.937,19.063 -0.406,40.125 2.063,41.969c4.094,2.531 77.281,6.25 83.406,1.5c-0.937,-4.281 -24.562,-24.75 -47.437,-42.5l-38.031,-0.969Z" style="fill:#231f20;fill-rule:nonzero;"/><path d="M187.969,284.762c-0,-0 4.844,0.437 13.062,1.312c42.813,4.438 172.313,23.281 190.188,46.219c35.187,45.156 22.875,225 22.875,225l-67.625,2.562c-0,0 -5.406,-140.625 -19.063,-153.687c-13.656,-13.063 -176.406,-59.844 -176.406,-59.844" style="fill:#231f20;fill-rule:nonzero;"/><path d="M346.469,561.449c-0.823,-0.016 -1.499,-0.678 -1.531,-1.5c-1.5,-38.906 -7.782,-142.156 -18.594,-152.625c-10.813,-10.469 -119.594,-43.375 -175.781,-59.375c-0.699,-0.195 -1.186,-0.837 -1.186,-1.562c0,-0.89 0.733,-1.623 1.623,-1.623c0.148,0 0.295,0.02 0.438,0.06c6.656,1.938 163.312,46.875 177.062,60.219c13.281,12.875 18.75,136.969 19.469,153.125l64.656,-2.438c1.031,-16.875 10.156,-180.468 -22.656,-222.593c-16.438,-21.125 -136.75,-40.157 -189.125,-45.625c-8.188,-0.844 -13.032,-1.282 -13.032,-1.282c-0.846,-0.081 -1.478,-0.84 -1.406,-1.687c0.112,-0.831 0.85,-1.446 1.688,-1.406c0.837,0.039 4.875,0.437 13.094,1.281c35.562,3.719 172.312,22.5 191.25,46.875c14.812,19 23.187,62.875 25,130.375c1.312,50 -1.719,95.281 -1.75,95.719c-0.076,0.78 -0.717,1.395 -1.501,1.437l-67.625,2.594l-0.093,0.031Z" style="fill:#231f20;fill-rule:nonzero;"/><path d="M109.469,611.918c-4.274,-0.068 -7.74,-3.632 -7.688,-7.906l0,-190.625c0,-4.286 3.527,-7.813 7.813,-7.813c4.286,0 7.812,3.527 7.812,7.813l0,190.625c0.001,0.031 0.001,0.063 0.001,0.094c-0,4.286 -3.527,7.813 -7.813,7.813c-0.042,-0 -0.083,-0 -0.125,-0.001Z" style="fill:#231f20;fill-rule:nonzero;"/><path d="M159.906,620.23c-5.156,-8.218 -25.75,-14.343 -50.437,-14.343c-24.688,-0 -45.313,6.25 -50.469,14.343" style="fill:#fff;fill-rule:nonzero;"/><path d="M159.938,628.043c-2.69,0.009 -5.2,-1.376 -6.626,-3.656c-2.343,-3.719 -17.625,-10.688 -43.75,-10.688c-26.124,0 -41.531,6.969 -43.75,10.688c-1.396,2.405 -3.975,3.891 -6.757,3.891c-4.285,-0 -7.812,-3.527 -7.812,-7.813c-0,-1.566 0.471,-3.096 1.351,-4.391c8.343,-13.281 35.969,-18 57.093,-18c21.125,0 48.719,4.719 57.063,18c0.783,1.246 1.199,2.688 1.199,4.159c-0,2.689 -1.388,5.196 -3.668,6.622c-1.297,0.821 -2.81,1.235 -4.343,1.188Z" style="fill:#231f20;fill-rule:nonzero;"/><circle cx="52.125" cy="626.98" r="19.844" style="fill:#231f20;"/><path d="M52.125,648.387c-11.743,-0 -21.406,-9.663 -21.406,-21.407c-0,-11.743 9.663,-21.406 21.406,-21.406c11.743,0 21.406,9.663 21.406,21.406c0,11.744 -9.663,21.407 -21.406,21.407Zm-0,-39.688c-0.01,0 -0.021,0 -0.031,0c-10.046,0 -18.313,8.267 -18.313,18.313c0,10.046 8.267,18.312 18.313,18.312c10.046,0 18.312,-8.266 18.312,-18.312c0,-0.011 0,-0.021 0,-0.032c-0.034,-10.015 -8.265,-18.247 -18.281,-18.281Z" style="fill:#231f20;fill-rule:nonzero;"/><circle cx="166.781" cy="626.98" r="19.844" style="fill:#231f20;"/><path d="M166.781,648.387c-11.743,-0 -21.406,-9.663 -21.406,-21.407c0,-11.743 9.663,-21.406 21.406,-21.406c11.743,0 21.406,9.663 21.406,21.406c0,11.744 -9.663,21.407 -21.406,21.407Zm0,-39.688c-10.046,0 -18.312,8.267 -18.312,18.313c-0,10.046 8.266,18.312 18.312,18.312c10.046,0 18.313,-8.266 18.313,-18.312c-0,-0.011 -0,-0.021 -0,-0.032c-0.017,-10.034 -8.279,-18.281 -18.313,-18.281Z" style="fill:#231f20;fill-rule:nonzero;"/><path d="M192,390.23c-0,-9.968 -8.094,-18.062 -18.063,-18.062l-130.468,-0c-9.969,-0 -18.063,8.094 -18.063,18.062l0,5.313c0,9.969 8.094,18.062 18.063,18.062l130.468,0c9.969,0 18.063,-8.093 18.063,-18.062l-0,-5.313Z" style="fill:#fff;"/><path d="M173.937,372.168c9.909,-0 18.063,8.154 18.063,18.062l-0,5.313c0,9.909 -8.154,18.062 -18.062,18.062c-0,0 -130.501,0 -130.501,0c-9.891,0 -18.031,-8.139 -18.031,-18.031c0,-0.01 0,-0.021 0,-0.031l0,-5.313c0,-0.01 0,-0.02 0,-0.031c0,-9.891 8.14,-18.031 18.031,-18.031c0,-0 130.5,-0 130.5,-0m0,-3.125l-130.5,-0c-11.611,0.017 -21.156,9.576 -21.156,21.187l0,5.313c0,11.611 9.545,21.17 21.156,21.187l130.5,0c11.617,-0.017 21.171,-9.57 21.188,-21.187l0,-5.313c-0.017,-11.616 -9.571,-21.17 -21.188,-21.187Z" style="fill:#231f20;fill-rule:nonzero;"/><rect x="201.156" y="576.293" width="405.219" height="21.125" style="fill:#fff;"/><path d="M606.375,576.293l0,21.125l-405.219,-0l0,-21.125l405.219,-0m0,-3.125l-405.219,-0c-1.714,-0 -3.125,1.411 -3.125,3.125l0,21.125c0,1.714 1.411,3.125 3.125,3.125l405.219,-0c1.714,-0 3.125,-1.411 3.125,-3.125l0,-21.125c0,-1.714 -1.411,-3.125 -3.125,-3.125Z" style="fill:#231f20;fill-rule:nonzero;"/><path d="M20.531,293.918c0,-0 4.969,96.312 66.344,95.844c33.187,-0.25 144.844,10.312 144.844,10.312l-35.25,128.344l56.843,34.969c0,-0 100.344,-131.25 96.875,-195.907c-3.468,-64.656 -165.468,-91.593 -165.468,-91.593l-164.188,18.031Z" style="fill:#231f20;fill-rule:nonzero;"/><path d="M253.344,564.949c-0.296,0.002 -0.587,-0.073 -0.844,-0.219l-56.969,-35c-0.587,-0.352 -0.869,-1.058 -0.687,-1.718l34.656,-126.532c-14.5,-1.375 -110.031,-10.156 -141.688,-10.156l-1.593,0c-61.719,0 -67.407,-96.344 -67.469,-97.344c-0.038,-0.813 0.566,-1.528 1.375,-1.625l164.312,-17.937l0.407,-0c27.761,5.024 55.077,12.256 81.687,21.625c54.938,19.875 83.563,43.75 85.031,71.312c3.532,64.375 -93,191.563 -97.125,196.875c-0.244,0.385 -0.643,0.647 -1.093,0.719Zm-55.063,-37.25l54.656,33.625c9.719,-12.937 98.938,-133.687 95.657,-193.75c-3.344,-61.531 -157.281,-88.875 -163.906,-90.031l-162.5,17.75c0.968,11.969 9.375,92.937 64.25,92.937l1.593,0c34.375,0 142.719,10.25 143.75,10.344c0.463,0.04 0.885,0.28 1.157,0.656c0.26,0.385 0.34,0.865 0.218,1.313l-34.875,127.156Z" style="fill:#231f20;fill-rule:nonzero;"/><path d="M624.906,666.637l-22.687,-0l-55.657,-415.313l22.688,0l55.656,415.313Z" style="fill:#fff;fill-rule:nonzero;"/><path d="M569.25,251.324l55.656,415.188l-22.656,-0l-55.688,-415.313l22.688,0m-0,-3.125l-22.688,0c-0.902,0.009 -1.757,0.408 -2.343,1.094c-0.594,0.676 -0.867,1.577 -0.75,2.469l55.656,415.281c0.204,1.558 1.554,2.732 3.125,2.719l22.656,-0c0.908,0.008 1.776,-0.381 2.375,-1.063c0.594,-0.676 0.867,-1.576 0.75,-2.469l-55.687,-415.218c-0.204,-1.558 -1.554,-2.732 -3.125,-2.719l0.031,-0.094Z" style="fill:#231f20;fill-rule:nonzero;"/><path d="M172.469,666.637l25.812,-0l63.344,-415.313l-25.813,0l-63.343,415.313Z" style="fill:#fff;fill-rule:nonzero;"/><path d="M261.625,251.324l-63.344,415.188l-25.812,-0l63.344,-415.313l25.812,0m0,-3.125l-25.812,0c-1.552,-0.017 -2.893,1.123 -3.125,2.656l-63.344,415.313c-0.135,0.898 0.127,1.811 0.719,2.5c0.593,0.694 1.462,1.094 2.374,1.094l25.813,-0c1.551,0.017 2.892,-1.123 3.125,-2.657l63.344,-415.062c0.015,-0.239 0.015,-0.479 -0,-0.719c-0,-1.714 -1.411,-3.125 -3.125,-3.125l0.031,0Z" style="fill:#231f20;fill-rule:nonzero;"/><path d="M617.531,232.23c0,-9.848 -7.995,-17.843 -17.843,-17.843l-380.688,-0c-9.848,-0 -17.844,7.995 -17.844,17.843l0,1.282c0,9.848 7.996,17.843 17.844,17.843l380.688,0c9.848,0 17.843,-7.995 17.843,-17.843l0,-1.282Z" style="fill:#fff;"/><path d="M599.688,214.387c9.706,0.068 17.667,8.043 17.718,17.75l0,1.281c-0.017,9.777 -8.067,17.813 -17.844,17.812l-380.562,0c-0.01,0.001 -0.021,0.001 -0.031,0.001c-9.772,-0 -17.813,-8.041 -17.813,-17.813c0,0 0,-1.281 0,-1.281c0,-0.011 0,-0.021 0,-0.032c0,-9.771 8.041,-17.812 17.813,-17.812c0.01,-0 0.021,-0 0.031,-0l380.688,-0m-0,-3.125l-380.688,-0c-11.497,0.017 -20.952,9.472 -20.969,20.969l0,1.281c0.017,11.491 9.478,20.937 20.969,20.937l380.688,0c11.491,0 20.951,-9.446 20.968,-20.937l0,-1.281c-0.017,-11.497 -9.472,-20.952 -20.969,-20.969Z" style="fill:#231f20;fill-rule:nonzero;"/><path d="M279.188,427.324c-0,0 -5.125,44.563 -3.125,61.469c2,16.906 13.781,21.875 19.843,21.281c7.094,-0.594 7.938,-28.812 8.594,-33.594l2.563,21.375c0.061,0.895 0.305,1.767 0.718,2.563c0.44,0.796 1.37,1.196 2.25,0.969c0.469,-0.193 0.871,-0.519 1.156,-0.938c1.643,-2.701 2.407,-5.846 2.188,-9c0.042,-8.306 -0.732,-16.596 -2.313,-24.75c-1.125,-6.25 -4.5,-12.187 -5.437,-18.75c-1.375,-9.375 -3.5,-34.375 -3.5,-34.375" style="fill:#fff;fill-rule:nonzero;"/><path d="M295,511.668c-7.25,-0 -18.438,-5.875 -20.437,-22.688c-2,-16.812 2.875,-60.031 3.125,-61.843c0.113,-0.852 0.895,-1.467 1.75,-1.375c0.846,0.097 1.465,0.871 1.375,1.718c-0,0.469 -5.094,44.594 -3.125,61.125c1.937,16.032 13.062,20.313 18.156,19.907c3.125,-0.25 5.344,-9.719 6.812,-28.125c0,-1.813 0.25,-3.125 0.375,-4.032c0.094,-0.773 0.752,-1.365 1.532,-1.375c0.79,-0.005 1.467,0.59 1.562,1.375l2.563,21.375c0.037,0.659 0.196,1.306 0.468,1.907c0.106,0.17 0.274,0.293 0.469,0.343c0.195,0.05 0,0 0.375,-0.406c1.418,-2.45 2.072,-5.269 1.875,-8.094c0.047,-8.201 -0.717,-16.386 -2.281,-24.437c-0.628,-2.938 -1.484,-5.821 -2.563,-8.625c-1.311,-3.257 -2.284,-6.639 -2.906,-10.094c-1.344,-9.375 -3.469,-34.375 -3.5,-34.375c-0.003,-0.041 -0.005,-0.083 -0.005,-0.125c0,-0.86 0.708,-1.567 1.568,-1.567c0.812,-0 1.497,0.632 1.562,1.442c0,0.25 2.125,25.188 3.469,34.375c0.617,3.205 1.538,6.344 2.75,9.375c1.139,2.965 2.038,6.016 2.687,9.125c1.596,8.237 2.381,16.61 2.344,25c0.223,3.482 -0.652,6.947 -2.5,9.906c-0.465,0.686 -1.131,1.21 -1.906,1.5c-1.569,0.445 -3.252,-0.241 -4.063,-1.656c-0.56,-0.951 -0.881,-2.023 -0.937,-3.125l-0.844,-6.906c-1.312,10.875 -3.562,20.062 -8.656,20.5l-1.094,-0.125Z" style="fill:#231f20;fill-rule:nonzero;"/><path d="M312.031,219.637c0,-0 8.781,-79.782 -40.625,-111.469c-49.406,-31.688 -143.406,-48.969 -206.75,22.594c-63.344,71.562 -49.281,163.656 -49.281,163.656l169.344,-18.531c-0,-0 -11.719,-45.75 16.437,-61.594l40.469,-0c-0,-0 -3.125,148.406 34.375,216.437l35.531,2.657l0.5,-213.75Z" style="fill:#fff;fill-rule:nonzero;stroke:#000;stroke-width:3.13px;"/><path d="M512.844,170.699l-17.032,-6.094l56,-163l17.032,6.063l-56,163.031Z" style="fill:#fff;fill-rule:nonzero;"/><path d="M512.844,172.262c-0.176,0.029 -0.356,0.029 -0.532,-0l-17.031,-6.25c-0.789,-0.292 -1.208,-1.172 -0.937,-1.969l56,-163.031c0.133,-0.392 0.413,-0.717 0.781,-0.907c0.394,-0.14 0.825,-0.14 1.219,0l17,6.25c0.806,0.293 1.239,1.187 0.968,2l-56.031,162.844c-0.123,0.397 -0.406,0.726 -0.781,0.906c-0.207,0.092 -0.43,0.145 -0.656,0.157Zm-15.032,-8.625l14.063,5.062l54.969,-160.062l-14.063,-5.032l-54.969,160.032Z" style="fill:#d1d3d4;fill-rule:nonzero;"/><path d="M337.438,412.605c-0.715,-0.014 -1.34,-0.499 -1.532,-1.187c-0.344,-1.219 0.219,-3.375 1.906,-9.375c4.157,-14.938 12.844,-45.938 1.532,-65.906c-4.91,-8.332 -13.042,-14.281 -22.469,-16.438c-0.82,-0.227 -1.312,-1.084 -1.094,-1.906c0.255,-0.814 1.109,-1.297 1.938,-1.094c10.221,2.361 19.026,8.845 24.312,17.906c11.969,21.063 3.125,52.938 -1.218,68.25c-0.826,2.555 -1.463,5.166 -1.907,7.813c0.045,0.142 0.067,0.29 0.067,0.439c0,0.69 -0.486,1.291 -1.16,1.436l-0.375,0.062Z" style="fill:#fff;fill-rule:nonzero;"/><path d="M241.625,215.949c-0.63,-0.003 -1.198,-0.386 -1.438,-0.969c-0.562,-1.406 -13.625,-34 -11.843,-50.625c0.097,-0.846 0.871,-1.465 1.719,-1.375c0.782,0.074 1.387,0.739 1.387,1.525c-0,0.065 -0.004,0.13 -0.013,0.194c-1.687,15.844 11.501,48.781 11.625,49.094c0.083,0.192 0.126,0.398 0.126,0.607c-0,0.627 -0.386,1.194 -0.969,1.424c-0.186,0.087 -0.389,0.129 -0.594,0.125Z" style="fill:#231f20;fill-rule:nonzero;"/><path d="M214.062,296.887l-0.343,-0l-35.782,-8.219c-0.73,-0.161 -1.256,-0.814 -1.256,-1.563c0,-0.877 0.723,-1.599 1.6,-1.599c0.116,-0 0.231,0.012 0.344,0.037l35.656,8.281c0.698,0.141 1.204,0.759 1.204,1.471c-0,0.126 -0.016,0.251 -0.048,0.373c-0.136,0.665 -0.698,1.163 -1.375,1.219Z" style="fill:#fff;fill-rule:nonzero;"/><path d="M681.219,434.855c-0.371,-5.142 0.712,-10.287 3.125,-14.843c2.384,-3.011 4.616,-6.14 6.687,-9.375c2.813,-6.032 0.813,-13.157 1.5,-19.782c0.6,-5.552 3.043,-10.747 6.938,-14.75c3.469,-3.5 7.937,-5.906 11.25,-9.562c5.437,-6 7,-14.438 10.094,-21.875c4.382,-10.576 11.982,-19.51 21.718,-25.531c-5.937,11.906 7.563,27.062 1.469,38.875c-1.969,3.75 -5.656,6.468 -7.062,10.468c-3.438,9.594 8,19.969 4.343,29.469c-1.843,4.75 -6.937,7.5 -9.375,12c-3.125,6.063 -0.687,13.438 -0.968,20.281c-0.344,9.375 -6.094,17.938 -12.938,24.469c-4.25,4.094 -9,7.594 -13.594,11.281c-5.5,4.407 -7.812,9.032 -12.687,1.969c-6.62,-9.786 -10.267,-21.281 -10.5,-33.094Z" style="fill:#d1d3d4;fill-rule:nonzero;"/><path d="M675.094,440.293c1.75,-7.313 3.125,-15.25 -0,-22.156c-3.375,-7.813 -11.782,-13.344 -12.75,-21.875c-0.657,-5.532 2.156,-11.157 1.062,-16.594c-1.094,-5.438 -5.594,-9.375 -9.375,-13.219c-8.45,-9.323 -13.478,-21.253 -14.25,-33.812c-5.695,6.726 -10.294,14.309 -13.625,22.468c-3.287,8.318 -2.548,17.706 2,25.407c1.414,1.697 2.572,3.592 3.438,5.625c1.656,5.375 -2.938,10.406 -5.344,15.625c-2.857,5.939 -2.207,12.995 1.688,18.312c4.843,6.031 14.156,8.375 16.531,15.625c0.609,2.738 0.893,5.539 0.844,8.344c1.018,9.917 8.008,18.26 17.593,21c5.719,1.375 5.625,-0.875 6.625,-5.688c1.5,-6.375 4.125,-12.625 5.563,-19.062Z" style="fill:#d1d3d4;fill-rule:nonzero;"/><path d="M693.281,387.668c4.063,-14.063 5.688,-28.75 9.969,-42.719c3.642,-10.94 8.091,-21.594 13.312,-31.875l-17.437,7.344c-5.594,2.375 -11.656,5.156 -14.281,10.594c-4.594,9.531 3.656,21.875 -1.188,31.25c-2.086,3.043 -4.383,5.935 -6.875,8.656c-5.156,7.219 -4.375,17.125 -1.531,25.5c1.187,3.625 6.469,22.281 11.187,17.094c1.907,-2.094 2.063,-9.813 2.844,-12.657c1.25,-4.5 2.75,-8.812 4,-13.187Z" style="fill:#d1d3d4;fill-rule:nonzero;"/><path d="M683.75,574.387c3.469,-22.969 14.375,-103.938 14.469,-104.75l-3.125,-0.407c-0,0.813 -10.969,81.75 -14.438,104.719l3.094,0.438Z" style="fill:#d1d3d4;fill-rule:nonzero;"/><path d="M679.656,596.074l3.125,0c-0.218,-27.281 -11.593,-131.531 -18.156,-138.687l-2.219,2.031c4.25,4.75 16.969,99.312 17.25,136.656Z" style="fill:#d1d3d4;fill-rule:nonzero;"/><path d="M673.656,590.887l3.125,-0c-2.594,-58.813 9.875,-182.344 10,-183.563l-3.125,-0.312c-0.031,1.125 -12.5,124.843 -10,183.875Z" style="fill:#d1d3d4;fill-rule:nonzero;"/><path d="M713.625,519.012l-64.969,-0l4.532,65.625c0.872,11.274 10.349,20.108 21.656,20.187l12.5,0c11.328,-0.005 20.841,-8.886 21.625,-20.187l4.656,-65.625Z" style="fill:#fff;fill-rule:nonzero;"/><path d="M687.438,606.48l-12.5,0c-12.141,-0.034 -22.326,-9.546 -23.188,-21.656l-4.562,-65.625c-0.033,-0.44 0.127,-0.873 0.437,-1.187c0.286,-0.32 0.696,-0.502 1.125,-0.5l64.906,-0c0.429,-0.002 0.839,0.18 1.125,0.5c0.31,0.314 0.47,0.747 0.438,1.187l-4.563,65.625c-0.863,12.121 -11.067,21.638 -23.218,21.656Zm-37.032,-85.906l4.5,64.031c0.778,10.478 9.588,18.698 20.094,18.75l12.5,0c10.506,-0.052 19.316,-8.272 20.094,-18.75l4.406,-64.031l-61.594,0Z" style="fill:#d1d3d4;fill-rule:nonzero;"/><circle cx="296.688" cy="32.637" r="6.906" style="fill:#d1d3d4;"/><circle cx="348.938" cy="32.637" r="6.906" style="fill:#d1d3d4;"/><circle cx="401.219" cy="32.637" r="6.906" style="fill:#d1d3d4;"/></svg>